<svg width="48" height="48" viewBox="0 0 48 48" fill="none" xmlns="http://www.w3.org/2000/svg">
<g filter="url(#filter0_d_0:3476)">
<path fill-rule="evenodd" clip-rule="evenodd" d="M40.1713 18H42C42.3682 18 42.6667 17.7015 42.6667 17.3333V12C42.6667 11.6318 42.3682 11.3333 42 11.3333H35.7453L34.6667 9.176V6.66667C34.6667 6.29848 34.3682 6 34 6H30C29.6318 6 29.3333 6.29848 29.3333 6.66667V9.33333C29.3333 9.70152 29.6318 10 30 10H33.588L34.6667 12.1573V16C34.6667 14.8954 33.7712 14 32.6667 14C31.5621 14 30.6667 14.8954 30.6667 16V14.6667C30.6667 14.2985 30.3682 14 30 14H24.7487L22.6667 13.4793V2.66667C22.6667 1.19391 21.4728 0 20 0H17.3333C15.8606 0 14.6667 1.19391 14.6667 2.66667V10H11.3333C10.2288 10 9.33333 10.8954 9.33333 12V14H4.66667C4.39707 14.0001 4.15404 14.1625 4.05088 14.4116C3.94772 14.6606 4.00473 14.9473 4.19533 15.138L5.724 16.6667L4.19533 18.1953C4.00473 18.386 3.94772 18.6727 4.05088 18.9218C4.15404 19.1708 4.39707 19.3333 4.66667 19.3333H11.3333C12.4379 19.3333 13.3333 18.4379 13.3333 17.3333V15.3333H14.6667V22H12.6667C10.3489 22.0027 8.38444 23.706 8.05333 26H6C5.63181 26 5.33333 26.2985 5.33333 26.6667V29.3333C5.33333 29.7015 5.63181 30 6 30H8V31.3333H4.66667C4.29848 31.3333 4 31.6318 4 32V34.6667C4 35.0349 4.29848 35.3333 4.66667 35.3333H12C12 37.9107 14.0893 40 16.6667 40C19.244 40 21.3333 37.9107 21.3333 35.3333H33.3333C33.3333 37.9107 35.4227 40 38 40C40.5773 40 42.6667 37.9107 42.6667 35.3333H43.3333C43.5366 35.3335 43.7288 35.2409 43.8554 35.0818C43.982 34.9228 44.0291 34.7147 43.9833 34.5167L40.1713 18ZM30.6667 16C30.6667 17.1046 31.5621 18 32.6667 18C33.7712 18 34.6667 17.1046 34.6667 16V30H32.6667V29.3333C32.6667 28.2288 31.7712 27.3333 30.6667 27.3333V20C30.6667 19.6318 30.3682 19.3333 30 19.3333H22.6667V17.5207L24.5047 17.98C24.5576 17.9933 24.6121 18 24.6667 18H30C30.3682 18 30.6667 17.7015 30.6667 17.3333V16ZM33.3333 8.66667H30.6667V7.33333H33.3333V8.66667ZM8 34V32.6667H5.33333V34H8ZM8 28.6667H6.66667V27.3333H8V28.6667ZM41.3333 12.6667H40V16.6667H41.3333V12.6667ZM36 12.6667H38.6667V16.6667H36V12.6667ZM31.3333 29.3333C31.3333 28.9651 31.0349 28.6667 30.6667 28.6667H28V30H31.3333V29.3333ZM24.5047 15.3133C24.5576 15.3266 24.6121 15.3333 24.6667 15.3333H29.3333V16.6667H24.7487L20 15.4793V14.1873L24.5047 15.3133ZM17.3333 1.33333C16.597 1.33333 16 1.93029 16 2.66667V5.33333H18V4C18 3.63181 18.2985 3.33333 18.6667 3.33333H21.3333V2.66667C21.3333 1.93029 20.7364 1.33333 20 1.33333H17.3333ZM16 6.66667H18.6667C19.0349 6.66667 19.3333 6.36819 19.3333 6V4.66667H21.3333V6.17067L16 7.77067V6.66667ZM21.3333 10.6667V7.56267L16 9.16267V10.6667H21.3333ZM21.3333 12V13.146L19.4953 12.6867C19.2961 12.6368 19.0851 12.6814 18.9232 12.8078C18.7613 12.9341 18.6667 13.128 18.6667 13.3333V16C18.6667 16.3058 18.8747 16.5724 19.1713 16.6467L21.3333 17.1873V19.3333H16V12H21.3333ZM29.3333 27.3333V20.6667H16V22H27.3333C27.7015 22 28 22.2985 28 22.6667V27.3333H29.3333ZM12 17.3333C12 17.7015 11.7015 18 11.3333 18H6.276L7.138 17.138C7.39825 16.8777 7.39825 16.4557 7.138 16.1953L6.276 15.3333H12V17.3333ZM10.6667 12V14H14.6667V11.3333H11.3333C10.9651 11.3333 10.6667 11.6318 10.6667 12ZM16.6667 38.6667C14.8266 38.6645 13.3355 37.1734 13.3333 35.3333H14.6667C14.6667 36.4379 15.5621 37.3333 16.6667 37.3333C17.7712 37.3333 18.6667 36.4379 18.6667 35.3333H20C19.9978 37.1734 18.5067 38.6645 16.6667 38.6667ZM16.6667 36C17.0349 36 17.3333 35.7015 17.3333 35.3333H16C16 35.7015 16.2985 36 16.6667 36ZM21.3333 34H12V27.3333C12 26.9651 12.2985 26.6667 12.6667 26.6667H20.6667C21.0349 26.6667 21.3333 26.9651 21.3333 27.3333V34ZM22.6667 34H24V26.6667C23.9978 24.8266 22.5067 23.3355 20.6667 23.3333H12.6667C10.8266 23.3355 9.33554 24.8266 9.33333 26.6667V34H10.6667V27.3333C10.6667 26.2288 11.5621 25.3333 12.6667 25.3333H20.6667C21.7712 25.3333 22.6667 26.2288 22.6667 27.3333V34ZM23.9267 23.3333H26.6667V30H25.3333V26.6667C25.3335 25.4113 24.8262 24.2091 23.9267 23.3333ZM38 38.6667C36.16 38.6645 34.6689 37.1734 34.6667 35.3333H36C36 36.4379 36.8954 37.3333 38 37.3333C39.1046 37.3333 40 36.4379 40 35.3333H41.3333C41.3311 37.1734 39.84 38.6645 38 38.6667ZM38 36C38.3682 36 38.6667 35.7015 38.6667 35.3333H37.3333C37.3333 35.7015 37.6318 36 38 36ZM36 34V29.3333H37.3333V28H36V18H38.8L42.492 34H36ZM25.3333 34H34.6667V31.3333H25.3333V34ZM40 28H38.6667V29.3333H40V28ZM13.3333 28H14.6667V29.3333H13.3333V28ZM17.3333 28H16V29.3333H17.3333V28ZM18.6667 28H20V29.3333H18.6667V28ZM32.6667 15.3333C33.0349 15.3333 33.3333 15.6318 33.3333 16C33.3333 16.3682 33.0349 16.6667 32.6667 16.6667C32.2985 16.6667 32 16.3682 32 16C32 15.6318 32.2985 15.3333 32.6667 15.3333ZM4 4.66667H12.6667V6H4V4.66667ZM13.3333 7.33333H5.33333V8.66667H13.3333V7.33333Z" fill="#495567"/>
</g>
<defs>
<filter id="filter0_d_0:3476" x="0" y="0" width="48.0005" height="48" filterUnits="userSpaceOnUse" color-interpolation-filters="sRGB">
<feFlood flood-opacity="0" result="BackgroundImageFix"/>
<feColorMatrix in="SourceAlpha" type="matrix" values="0 0 0 0 0 0 0 0 0 0 0 0 0 0 0 0 0 0 127 0" result="hardAlpha"/>
<feOffset dy="4"/>
<feGaussianBlur stdDeviation="2"/>
<feComposite in2="hardAlpha" operator="out"/>
<feColorMatrix type="matrix" values="0 0 0 0 0 0 0 0 0 0 0 0 0 0 0 0 0 0 0.25 0"/>
<feBlend mode="normal" in2="BackgroundImageFix" result="effect1_dropShadow_0:3476"/>
<feBlend mode="normal" in="SourceGraphic" in2="effect1_dropShadow_0:3476" result="shape"/>
</filter>
</defs>
</svg>
