<svg width="24" height="20" viewBox="0 0 24 20" fill="none" xmlns="http://www.w3.org/2000/svg">
<path d="M24 2.557C23.117 2.949 22.168 3.213 21.172 3.332C22.189 2.723 22.97 1.758 23.337 0.608001C22.386 1.172 21.332 1.582 20.21 1.803C19.313 0.846001 18.032 0.248001 16.616 0.248001C13.437 0.248001 11.101 3.214 11.819 6.293C7.728 6.088 4.1 4.128 1.671 1.149C0.381 3.362 1.002 6.257 3.194 7.723C2.388 7.697 1.628 7.476 0.965 7.107C0.911 9.388 2.546 11.522 4.914 11.997C4.221 12.185 3.462 12.229 2.69 12.081C3.316 14.037 5.134 15.46 7.29 15.5C5.22 17.123 2.612 17.848 0 17.54C2.179 18.937 4.768 19.752 7.548 19.752C16.69 19.752 21.855 12.031 21.543 5.106C22.505 4.411 23.34 3.544 24 2.557Z" fill="#FCB72B"/>
</svg>
